<svg width="16" height="16" viewBox="0 0 16 16" fill="none" xmlns="http://www.w3.org/2000/svg">
<mask id="mask0" mask-type="alpha" maskUnits="userSpaceOnUse" x="1" y="9" width="11" height="6">
<path fill-rule="evenodd" clip-rule="evenodd" d="M1.33325 9.63733H11.8359V14.5299H1.33325V9.63733Z" fill="white"/>
</mask>
<g mask="url(#mask0)">
<path fill-rule="evenodd" clip-rule="evenodd" d="M6.58459 10.6373C3.76392 10.6373 2.33325 11.122 2.33325 12.0767C2.33325 13.0407 3.76392 13.53 6.58459 13.53C9.40525 13.53 10.8359 13.0453 10.8359 12.0913C10.8359 11.126 9.40525 10.6373 6.58459 10.6373ZM6.58459 14.53C5.28592 14.53 1.33325 14.53 1.33325 12.0767C1.33325 9.89 4.32992 9.63733 6.58459 9.63733C7.88325 9.63733 11.8359 9.63733 11.8359 12.0913C11.8359 14.2773 8.83925 14.53 6.58459 14.53Z" fill="white"/>
</g>
<path fill-rule="evenodd" clip-rule="evenodd" d="M6.58448 2.33333C5.18182 2.33333 4.03982 3.47533 4.03982 4.87867C4.03715 5.558 4.29848 6.19467 4.77515 6.67533C5.25248 7.15533 5.88848 7.42133 6.56582 7.424L6.58448 7.924V7.424C7.98782 7.424 9.12982 6.282 9.12982 4.87867C9.12982 3.47533 7.98782 2.33333 6.58448 2.33333ZM6.58448 8.424H6.56382C5.61782 8.42066 4.73115 8.04933 4.06648 7.38C3.40115 6.71 3.03648 5.82067 3.03982 4.87667C3.03982 2.924 4.62982 1.33333 6.58448 1.33333C8.53982 1.33333 10.1298 2.924 10.1298 4.87866C10.1298 6.83333 8.53982 8.424 6.58448 8.424Z" fill="white"/>
<path fill-rule="evenodd" clip-rule="evenodd" d="M12.8027 8.95313C12.5267 8.95313 12.3027 8.72913 12.3027 8.45313V5.77913C12.3027 5.50313 12.5267 5.27913 12.8027 5.27913C13.0787 5.27913 13.3027 5.50313 13.3027 5.77913V8.45313C13.3027 8.72913 13.0787 8.95313 12.8027 8.95313Z" fill="white"/>
<path fill-rule="evenodd" clip-rule="evenodd" d="M14.1666 7.61586H11.4399C11.1639 7.61586 10.9399 7.39186 10.9399 7.11586C10.9399 6.83986 11.1639 6.61586 11.4399 6.61586H14.1666C14.4426 6.61586 14.6666 6.83986 14.6666 7.11586C14.6666 7.39186 14.4426 7.61586 14.1666 7.61586Z" fill="white"/>
</svg>
