<svg width="54" height="53" viewBox="0 0 54 53" fill="none" xmlns="http://www.w3.org/2000/svg">
<circle cx="26.5715" cy="26.5" r="26.5" fill="url(#paint0_linear)"/>
<path d="M31.9111 19.7964C32.2908 19.7964 32.6046 20.0786 32.6542 20.4447L32.6611 20.5464V34.1642C32.6611 34.5784 32.3253 34.9142 31.9111 34.9142C31.5314 34.9142 31.2176 34.6321 31.1679 34.266L31.1611 34.1642V20.5464C31.1611 20.1322 31.4969 19.7964 31.9111 19.7964Z" fill="white"/>
<path d="M35.4572 29.539C35.7494 29.2454 36.2243 29.2443 36.5178 29.5366C36.7847 29.8022 36.8099 30.2188 36.5927 30.5129L36.5203 30.5972L32.4425 34.6939C32.176 34.9616 31.7578 34.986 31.4636 34.7669L31.3794 34.6939L27.3016 30.5972C27.0094 30.3036 27.0105 29.8288 27.3041 29.5366C27.571 29.2709 27.9877 29.2477 28.2808 29.4662L28.3647 29.539L31.9105 33.101L35.4572 29.539Z" fill="white"/>
<path d="M21.9826 17.0829C22.3623 17.0829 22.6761 17.365 22.7258 17.7311L22.7326 17.8329V31.4507C22.7326 31.8649 22.3968 32.2007 21.9826 32.2007C21.6029 32.2007 21.2891 31.9185 21.2395 31.5524L21.2326 31.4507V17.8329C21.2326 17.4187 21.5684 17.0829 21.9826 17.0829Z" fill="white"/>
<path d="M21.4512 17.3032C21.7177 17.0355 22.136 17.0111 22.4301 17.2302L22.5143 17.3032L26.5921 21.3999C26.8843 21.6935 26.8832 22.1683 26.5896 22.4606C26.3227 22.7262 25.906 22.7494 25.6129 22.5309L25.529 22.4581L21.9825 18.895L18.4365 22.4581C18.1709 22.725 17.7543 22.7502 17.4602 22.533L17.3759 22.4606C17.109 22.1949 17.0838 21.7783 17.301 21.4842L17.3734 21.3999L21.4512 17.3032Z" fill="white"/>
<defs>
<linearGradient id="paint0_linear" x1="6.07153" y1="10" x2="48.0715" y2="43.5" gradientUnits="userSpaceOnUse">
<stop stop-color="#0F123F"/>
<stop offset="1" stop-color="#3A408F"/>
</linearGradient>
</defs>
</svg>
