<svg width="53" height="53" viewBox="0 0 53 53" fill="none" xmlns="http://www.w3.org/2000/svg">
<circle cx="26.5" cy="26.5" r="26.5" fill="url(#paint0_linear)"/>
<path fill-rule="evenodd" clip-rule="evenodd" d="M21.2163 30.0029C21.0563 30.0029 20.8953 29.9519 20.7593 29.8479C20.4313 29.5949 20.3693 29.1239 20.6223 28.7959L23.6153 24.9059C23.7373 24.7469 23.9183 24.6439 24.1163 24.6189C24.3183 24.5929 24.5163 24.6489 24.6733 24.7739L27.4933 26.9889L29.9603 23.8059C30.2143 23.4769 30.6843 23.4159 31.0123 23.6719C31.3403 23.9259 31.4003 24.3969 31.1463 24.7239L28.2163 28.5039C28.0943 28.6619 27.9143 28.7649 27.7163 28.7889C27.5163 28.8159 27.3183 28.7579 27.1603 28.6349L24.3423 26.4209L21.8113 29.7099C21.6633 29.9019 21.4413 30.0029 21.2163 30.0029Z" fill="white"/>
<mask id="mask0" mask-type="alpha" maskUnits="userSpaceOnUse" x="31" y="16" width="6" height="6">
<path fill-rule="evenodd" clip-rule="evenodd" d="M31.2953 16.0001H36.6393V21.345H31.2953V16.0001Z" fill="white"/>
</mask>
<g mask="url(#mask0)">
<path fill-rule="evenodd" clip-rule="evenodd" d="M33.9673 17.5C33.3213 17.5 32.7953 18.025 32.7953 18.672C32.7953 19.318 33.3213 19.845 33.9673 19.845C34.6133 19.845 35.1393 19.318 35.1393 18.672C35.1393 18.025 34.6133 17.5 33.9673 17.5ZM33.9673 21.345C32.4943 21.345 31.2953 20.146 31.2953 18.672C31.2953 17.198 32.4943 16 33.9673 16C35.4413 16 36.6393 17.198 36.6393 18.672C36.6393 20.146 35.4413 21.345 33.9673 21.345Z" fill="white"/>
</g>
<mask id="mask1" mask-type="alpha" maskUnits="userSpaceOnUse" x="16" y="16" width="20" height="21">
<path fill-rule="evenodd" clip-rule="evenodd" d="M16 16.8421H35.8619V36.7031H16V16.8421Z" fill="white"/>
</mask>
<g mask="url(#mask1)">
<path fill-rule="evenodd" clip-rule="evenodd" d="M30.2329 36.7031H21.6289C18.2619 36.7031 15.9999 34.3381 15.9999 30.8181V22.7361C15.9999 19.2111 18.2619 16.8421 21.6289 16.8421H28.8969C29.3109 16.8421 29.6469 17.1781 29.6469 17.5921C29.6469 18.0061 29.3109 18.3421 28.8969 18.3421H21.6289C19.1209 18.3421 17.4999 20.0661 17.4999 22.7361V30.8181C17.4999 33.5231 19.0819 35.2031 21.6289 35.2031H30.2329C32.7409 35.2031 34.3619 33.4821 34.3619 30.8181V23.7791C34.3619 23.3651 34.6979 23.0291 35.1119 23.0291C35.5259 23.0291 35.8619 23.3651 35.8619 23.7791V30.8181C35.8619 34.3381 33.5999 36.7031 30.2329 36.7031Z" fill="white"/>
</g>
<defs>
<linearGradient id="paint0_linear" x1="6" y1="10" x2="48" y2="43.5" gradientUnits="userSpaceOnUse">
<stop stop-color="#0F123F"/>
<stop offset="1" stop-color="#3A408F"/>
</linearGradient>
</defs>
</svg>
