<svg width="53" height="53" viewBox="0 0 53 53" fill="none" xmlns="http://www.w3.org/2000/svg">
<circle cx="26.5" cy="26.5" r="26.5" fill="url(#paint0_linear)"/>
<path fill-rule="evenodd" clip-rule="evenodd" d="M22.1211 31.5625C21.7071 31.5625 21.3711 31.2265 21.3711 30.8125V23.9525C21.3711 23.5385 21.7071 23.2025 22.1211 23.2025C22.5351 23.2025 22.8711 23.5385 22.8711 23.9525V30.8125C22.8711 31.2265 22.5351 31.5625 22.1211 31.5625Z" fill="white"/>
<path fill-rule="evenodd" clip-rule="evenodd" d="M26.7881 31.5615C26.3741 31.5615 26.0381 31.2255 26.0381 30.8115V20.6685C26.0381 20.2545 26.3741 19.9185 26.7881 19.9185C27.2021 19.9185 27.5381 20.2545 27.5381 20.6685V30.8115C27.5381 31.2255 27.2021 31.5615 26.7881 31.5615Z" fill="white"/>
<path fill-rule="evenodd" clip-rule="evenodd" d="M31.3784 31.5615C30.9644 31.5615 30.6284 31.2255 30.6284 30.8115V27.5775C30.6284 27.1635 30.9644 26.8275 31.3784 26.8275C31.7924 26.8275 32.1284 27.1635 32.1284 27.5775V30.8115C32.1284 31.2255 31.7924 31.5615 31.3784 31.5615Z" fill="white"/>
<path fill-rule="evenodd" clip-rule="evenodd" d="M22.064 16.5C19.292 16.5 17.5 18.397 17.5 21.335V30.165C17.5 33.103 19.292 35 22.064 35H31.436C34.209 35 36 33.103 36 30.165V21.335C36 18.397 34.209 16.5 31.436 16.5H22.064ZM31.436 36.5H22.064C18.437 36.5 16 33.954 16 30.165V21.335C16 17.546 18.437 15 22.064 15H31.436C35.063 15 37.5 17.546 37.5 21.335V30.165C37.5 33.954 35.063 36.5 31.436 36.5Z" fill="white"/>
<defs>
<linearGradient id="paint0_linear" x1="6" y1="10" x2="48" y2="43.5" gradientUnits="userSpaceOnUse">
<stop stop-color="#0F123F"/>
<stop offset="1" stop-color="#3A408F"/>
</linearGradient>
</defs>
</svg>
