<svg width="106" height="53" viewBox="0 0 106 53" fill="none" xmlns="http://www.w3.org/2000/svg">
<path d="M67 5H41C40.4469 5 40 5.44687 40 6V26C40 26.5531 40.4469 27 41 27H67C67.5531 27 68 26.5531 68 26V6C68 5.44687 67.5531 5 67 5ZM65.75 24.75H42.25V23.5031L46.5781 18.3687L51.2688 23.9312L58.5656 15.2812L65.75 23.8V24.75ZM65.75 20.6938L58.7563 12.4C58.6562 12.2812 58.475 12.2812 58.375 12.4L51.2688 20.825L46.7688 15.4906C46.6688 15.3719 46.4875 15.3719 46.3875 15.4906L42.25 20.3969V7.25H65.75V20.6938ZM47.5 14.25C47.8611 14.25 48.2187 14.1789 48.5524 14.0407C48.886 13.9025 49.1892 13.6999 49.4445 13.4445C49.6999 13.1892 49.9025 12.886 50.0407 12.5524C50.1789 12.2187 50.25 11.8611 50.25 11.5C50.25 11.1389 50.1789 10.7813 50.0407 10.4476C49.9025 10.114 49.6999 9.81082 49.4445 9.55546C49.1892 9.3001 48.886 9.09753 48.5524 8.95933C48.2187 8.82113 47.8611 8.75 47.5 8.75C46.7707 8.75 46.0712 9.03973 45.5555 9.55546C45.0397 10.0712 44.75 10.7707 44.75 11.5C44.75 12.2293 45.0397 12.9288 45.5555 13.4445C46.0712 13.9603 46.7707 14.25 47.5 14.25ZM47.5 10.625C47.9844 10.625 48.375 11.0156 48.375 11.5C48.375 11.9844 47.9844 12.375 47.5 12.375C47.0156 12.375 46.625 11.9844 46.625 11.5C46.625 11.0156 47.0156 10.625 47.5 10.625Z" fill="#BABEC6"/>
<path d="M0.907715 50V42.1797H3.11523C3.79557 42.1797 4.39714 42.3301 4.91992 42.6309C5.44271 42.9316 5.84554 43.3595 6.12842 43.9146C6.41488 44.4696 6.5599 45.1069 6.56348 45.8267V46.3262C6.56348 47.0638 6.42025 47.7101 6.13379 48.2651C5.85091 48.8201 5.4445 49.2463 4.91455 49.5435C4.38818 49.8407 3.77409 49.9928 3.07227 50H0.907715ZM1.93896 43.0283V49.1567H3.02393C3.81885 49.1567 4.43652 48.9097 4.87695 48.4155C5.32096 47.9214 5.54297 47.2178 5.54297 46.3047V45.8481C5.54297 44.9601 5.3335 44.2708 4.91455 43.7803C4.49919 43.2861 3.90837 43.0355 3.14209 43.0283H1.93896ZM11.1798 45.0801C11.0294 45.055 10.8665 45.0425 10.691 45.0425C10.0393 45.0425 9.5971 45.32 9.36436 45.875V50H8.3707V44.1885H9.3375L9.35361 44.8599C9.67946 44.3407 10.1414 44.0811 10.7394 44.0811C10.9327 44.0811 11.0795 44.1061 11.1798 44.1562V45.0801ZM15.8713 50C15.814 49.8854 15.7674 49.6813 15.7316 49.3877C15.2697 49.8675 14.7183 50.1074 14.0773 50.1074C13.5044 50.1074 13.0336 49.9463 12.6647 49.624C12.2995 49.2982 12.1169 48.8864 12.1169 48.3887C12.1169 47.7835 12.3461 47.3145 12.8044 46.9814C13.2663 46.6449 13.9144 46.4766 14.7487 46.4766H15.7155V46.02C15.7155 45.6727 15.6117 45.397 15.404 45.1929C15.1963 44.9852 14.8902 44.8813 14.4855 44.8813C14.1311 44.8813 13.8339 44.9709 13.5939 45.1499C13.354 45.3289 13.2341 45.5456 13.2341 45.7998H12.2351C12.2351 45.5098 12.3371 45.2305 12.5412 44.9619C12.7489 44.6898 13.0282 44.4749 13.3791 44.3174C13.7336 44.1598 14.1221 44.0811 14.5446 44.0811C15.2142 44.0811 15.7388 44.2493 16.1184 44.5859C16.4979 44.9189 16.6949 45.3791 16.7092 45.9663V48.6411C16.7092 49.1746 16.7772 49.599 16.9133 49.9141V50H15.8713ZM14.2224 49.2427C14.5339 49.2427 14.8293 49.1621 15.1086 49.001C15.3879 48.8398 15.5902 48.6304 15.7155 48.3726V47.1802H14.9367C13.7193 47.1802 13.1105 47.5365 13.1105 48.249C13.1105 48.5605 13.2144 48.804 13.4221 48.9795C13.6298 49.1549 13.8965 49.2427 14.2224 49.2427ZM18.4305 47.0459C18.4305 46.14 18.6399 45.4202 19.0589 44.8867C19.4778 44.3496 20.0328 44.0811 20.7239 44.0811C21.4329 44.0811 21.9861 44.3317 22.3836 44.833L22.4319 44.1885H23.3396V49.8604C23.3396 50.6123 23.1159 51.2049 22.6683 51.6382C22.2243 52.0715 21.6263 52.2881 20.8743 52.2881C20.4554 52.2881 20.0454 52.1986 19.6443 52.0195C19.2433 51.8405 18.9371 51.5952 18.7259 51.2837L19.2415 50.6875C19.6676 51.2139 20.1886 51.4771 20.8045 51.4771C21.2879 51.4771 21.6639 51.341 21.9324 51.0688C22.2046 50.7967 22.3406 50.4136 22.3406 49.9194V49.4199C21.9432 49.8783 21.4007 50.1074 20.7132 50.1074C20.0328 50.1074 19.4814 49.8335 19.0589 49.2856C18.6399 48.7378 18.4305 47.9912 18.4305 47.0459ZM19.4295 47.1587C19.4295 47.814 19.5638 48.3296 19.8323 48.7056C20.1009 49.078 20.4769 49.2642 20.9603 49.2642C21.5869 49.2642 22.047 48.9795 22.3406 48.4102V45.7568C22.0363 45.2018 21.5797 44.9243 20.971 44.9243C20.4876 44.9243 20.1098 45.1123 19.8377 45.4883C19.5656 45.8643 19.4295 46.4211 19.4295 47.1587ZM28.1089 47.0405C28.1089 46.4712 28.2199 45.9591 28.4419 45.5044C28.6675 45.0496 28.979 44.6987 29.3765 44.4517C29.7775 44.2046 30.234 44.0811 30.7461 44.0811C31.5374 44.0811 32.1766 44.355 32.6636 44.9028C33.1541 45.4507 33.3994 46.1794 33.3994 47.0889V47.1587C33.3994 47.7244 33.2902 48.2329 33.0718 48.6841C32.8569 49.1317 32.5472 49.4808 32.1426 49.7314C31.7415 49.9821 31.2796 50.1074 30.7568 50.1074C29.9691 50.1074 29.3299 49.8335 28.8394 49.2856C28.3524 48.7378 28.1089 48.0127 28.1089 47.1104V47.0405ZM29.1079 47.1587C29.1079 47.8032 29.2565 48.3206 29.5537 48.7109C29.8545 49.1012 30.2555 49.2964 30.7568 49.2964C31.2617 49.2964 31.6628 49.0994 31.96 48.7056C32.2572 48.3081 32.4058 47.7531 32.4058 47.0405C32.4058 46.4032 32.2536 45.8875 31.9492 45.4937C31.6484 45.0962 31.2474 44.8975 30.7461 44.8975C30.2555 44.8975 29.8599 45.0926 29.5591 45.4829C29.2583 45.8732 29.1079 46.4318 29.1079 47.1587ZM37.8546 45.0801C37.7042 45.055 37.5413 45.0425 37.3658 45.0425C36.7141 45.0425 36.2719 45.32 36.0392 45.875V50H35.0455V44.1885H36.0123L36.0284 44.8599C36.3543 44.3407 36.8162 44.0811 37.4142 44.0811C37.6075 44.0811 37.7543 44.1061 37.8546 44.1562V45.0801ZM47.9627 42.1797V47.4971C47.9591 48.2347 47.7264 48.8381 47.2645 49.3071C46.8061 49.7762 46.1831 50.0394 45.3953 50.0967L45.1214 50.1074C44.2656 50.1074 43.5835 49.8765 43.075 49.4146C42.5665 48.9526 42.3087 48.3171 42.3016 47.5078V42.1797H43.3221V47.4756C43.3221 48.0413 43.4778 48.4818 43.7894 48.7969C44.1009 49.1084 44.5449 49.2642 45.1214 49.2642C45.705 49.2642 46.1508 49.1084 46.4588 48.7969C46.7703 48.4854 46.9261 48.0467 46.9261 47.481V42.1797H47.9627ZM54.7436 47.1587C54.7436 48.0431 54.5412 48.7557 54.1366 49.2964C53.732 49.8371 53.1841 50.1074 52.4931 50.1074C51.7877 50.1074 51.2326 49.8836 50.828 49.436V52.2344H49.8344V44.1885H50.7421L50.7904 44.833C51.1951 44.3317 51.7572 44.0811 52.477 44.0811C53.1752 44.0811 53.7266 44.3442 54.1312 44.8706C54.5395 45.397 54.7436 46.1292 54.7436 47.0674V47.1587ZM53.7499 47.0459C53.7499 46.3906 53.6103 45.8732 53.331 45.4937C53.0517 45.1141 52.6685 44.9243 52.1815 44.9243C51.58 44.9243 51.1288 45.1911 50.828 45.7246V48.5015C51.1252 49.0314 51.58 49.2964 52.1923 49.2964C52.6685 49.2964 53.0463 49.1084 53.3256 48.7324C53.6085 48.3529 53.7499 47.7907 53.7499 47.0459ZM57.4907 50H56.4971V41.75H57.4907V50ZM59.2228 47.0405C59.2228 46.4712 59.3338 45.9591 59.5558 45.5044C59.7813 45.0496 60.0929 44.6987 60.4903 44.4517C60.8914 44.2046 61.3479 44.0811 61.86 44.0811C62.6513 44.0811 63.2905 44.355 63.7774 44.9028C64.268 45.4507 64.5133 46.1794 64.5133 47.0889V47.1587C64.5133 47.7244 64.4041 48.2329 64.1856 48.6841C63.9708 49.1317 63.6611 49.4808 63.2564 49.7314C62.8554 49.9821 62.3935 50.1074 61.8707 50.1074C61.0829 50.1074 60.4438 49.8335 59.9532 49.2856C59.4662 48.7378 59.2228 48.0127 59.2228 47.1104V47.0405ZM60.2218 47.1587C60.2218 47.8032 60.3704 48.3206 60.6676 48.7109C60.9684 49.1012 61.3694 49.2964 61.8707 49.2964C62.3756 49.2964 62.7766 49.0994 63.0738 48.7056C63.371 48.3081 63.5196 47.7531 63.5196 47.0405C63.5196 46.4032 63.3674 45.8875 63.0631 45.4937C62.7623 45.0962 62.3613 44.8975 61.86 44.8975C61.3694 44.8975 60.9737 45.0926 60.673 45.4829C60.3722 45.8732 60.2218 46.4318 60.2218 47.1587ZM69.7473 50C69.69 49.8854 69.6434 49.6813 69.6076 49.3877C69.1457 49.8675 68.5943 50.1074 67.9533 50.1074C67.3804 50.1074 66.9095 49.9463 66.5407 49.624C66.1755 49.2982 65.9929 48.8864 65.9929 48.3887C65.9929 47.7835 66.222 47.3145 66.6804 46.9814C67.1423 46.6449 67.7904 46.4766 68.6247 46.4766H69.5915V46.02C69.5915 45.6727 69.4877 45.397 69.28 45.1929C69.0723 44.9852 68.7661 44.8813 68.3615 44.8813C68.007 44.8813 67.7098 44.9709 67.4699 45.1499C67.23 45.3289 67.1101 45.5456 67.1101 45.7998H66.111C66.111 45.5098 66.2131 45.2305 66.4172 44.9619C66.6249 44.6898 66.9042 44.4749 67.2551 44.3174C67.6096 44.1598 67.9981 44.0811 68.4206 44.0811C69.0902 44.0811 69.6148 44.2493 69.9943 44.5859C70.3739 44.9189 70.5708 45.3791 70.5852 45.9663V48.6411C70.5852 49.1746 70.6532 49.599 70.7893 49.9141V50H69.7473ZM68.0983 49.2427C68.4099 49.2427 68.7053 49.1621 68.9846 49.001C69.2639 48.8398 69.4662 48.6304 69.5915 48.3726V47.1802H68.8127C67.5953 47.1802 66.9865 47.5365 66.9865 48.249C66.9865 48.5605 67.0904 48.804 67.298 48.9795C67.5057 49.1549 67.7725 49.2427 68.0983 49.2427ZM72.3011 47.0459C72.3011 46.1543 72.5123 45.4382 72.9349 44.8975C73.3574 44.3532 73.9106 44.0811 74.5945 44.0811C75.2749 44.0811 75.8138 44.3138 76.2112 44.7793V41.75H77.2049V50H76.2918L76.2435 49.377C75.846 49.8639 75.2928 50.1074 74.5838 50.1074C73.9106 50.1074 73.361 49.8317 72.9349 49.2803C72.5123 48.7288 72.3011 48.0091 72.3011 47.1211V47.0459ZM73.2947 47.1587C73.2947 47.8175 73.4308 48.3332 73.7029 48.7056C73.9751 49.078 74.351 49.2642 74.8309 49.2642C75.4611 49.2642 75.9212 48.9813 76.2112 48.4155V45.7461C75.914 45.1982 75.4575 44.9243 74.8416 44.9243C74.3546 44.9243 73.9751 45.1123 73.7029 45.4883C73.4308 45.8643 73.2947 46.4211 73.2947 47.1587ZM86.749 46.5464H83.4673V50H82.436V42.1797H87.2808V43.0283H83.4673V45.7031H86.749V46.5464ZM89.8399 50H88.8463V44.1885H89.8399V50ZM88.7657 42.647C88.7657 42.4858 88.8141 42.3498 88.9107 42.2388C89.011 42.1278 89.1578 42.0723 89.3512 42.0723C89.5445 42.0723 89.6913 42.1278 89.7916 42.2388C89.8919 42.3498 89.942 42.4858 89.942 42.647C89.942 42.8081 89.8919 42.9424 89.7916 43.0498C89.6913 43.1572 89.5445 43.2109 89.3512 43.2109C89.1578 43.2109 89.011 43.1572 88.9107 43.0498C88.8141 42.9424 88.7657 42.8081 88.7657 42.647ZM92.9147 50H91.9211V41.75H92.9147V50ZM97.3216 50.1074C96.5338 50.1074 95.8929 49.8496 95.3987 49.334C94.9046 48.8148 94.6575 48.1219 94.6575 47.2554V47.0728C94.6575 46.4963 94.7667 45.9824 94.9852 45.5312C95.2072 45.0765 95.5151 44.722 95.909 44.4678C96.3064 44.21 96.7361 44.0811 97.198 44.0811C97.9536 44.0811 98.5408 44.3299 98.9598 44.8276C99.3787 45.3254 99.5882 46.0379 99.5882 46.9653V47.3789H95.6512C95.6655 47.9518 95.832 48.4155 96.1507 48.77C96.4729 49.1209 96.8811 49.2964 97.3753 49.2964C97.7262 49.2964 98.0234 49.2248 98.2669 49.0815C98.5104 48.9383 98.7234 48.7485 98.9061 48.5122L99.513 48.9849C99.026 49.7332 98.2955 50.1074 97.3216 50.1074ZM97.198 44.8975C96.797 44.8975 96.4604 45.0443 96.1883 45.3379C95.9161 45.6279 95.7478 46.0361 95.6834 46.5625H98.5945V46.4873C98.5659 45.9824 98.4298 45.5921 98.1863 45.3164C97.9428 45.0371 97.6134 44.8975 97.198 44.8975ZM104.527 48.4585C104.527 48.1899 104.425 47.9823 104.221 47.8354C104.02 47.6851 103.667 47.5562 103.162 47.4487C102.661 47.3413 102.262 47.2124 101.965 47.062C101.671 46.9116 101.453 46.7326 101.309 46.5249C101.17 46.3172 101.1 46.0701 101.1 45.7837C101.1 45.3075 101.301 44.9046 101.702 44.5752C102.106 44.2458 102.622 44.0811 103.248 44.0811C103.907 44.0811 104.441 44.2511 104.849 44.5913C105.261 44.9315 105.467 45.3665 105.467 45.8965H104.468C104.468 45.6243 104.351 45.3898 104.119 45.1929C103.889 44.9959 103.599 44.8975 103.248 44.8975C102.887 44.8975 102.604 44.9762 102.4 45.1338C102.196 45.2913 102.094 45.4972 102.094 45.7515C102.094 45.9914 102.189 46.1722 102.378 46.2939C102.568 46.4157 102.91 46.5321 103.404 46.6431C103.902 46.7541 104.305 46.8866 104.613 47.0405C104.921 47.1945 105.148 47.3807 105.295 47.5991C105.445 47.814 105.52 48.0771 105.52 48.3887C105.52 48.9079 105.313 49.325 104.897 49.6401C104.482 49.9517 103.943 50.1074 103.281 50.1074C102.815 50.1074 102.403 50.0251 102.045 49.8604C101.687 49.6956 101.406 49.4665 101.202 49.1729C101.002 48.8757 100.901 48.5552 100.901 48.2114H101.895C101.913 48.5444 102.045 48.8094 102.292 49.0063C102.543 49.1997 102.872 49.2964 103.281 49.2964C103.657 49.2964 103.957 49.2212 104.183 49.0708C104.412 48.9168 104.527 48.7127 104.527 48.4585Z" fill="#778192"/>
</svg>
