<svg width="22" height="20" viewBox="0 0 22 20" fill="none" xmlns="http://www.w3.org/2000/svg">
<path d="M18.875 14.0908V17.159C18.875 17.4303 18.7565 17.6904 18.5455 17.8822C18.3345 18.074 18.0484 18.1818 17.75 18.1818H4.25C3.65326 18.1818 3.08097 17.9662 2.65901 17.5827C2.23705 17.1991 2 16.6788 2 16.1363V3.86357M16.625 5.90902V2.84084C16.625 2.5696 16.5065 2.30946 16.2955 2.11767C16.0845 1.92587 15.7984 1.81812 15.5 1.81812H4.25C3.65326 1.81812 3.08097 2.03362 2.65901 2.41721C2.23705 2.80081 2 3.32108 2 3.86357C2 4.40606 2.23705 4.92633 2.65901 5.30992C3.08097 5.69352 3.65326 5.90902 4.25 5.90902H17.75C18.0484 5.90902 18.3345 6.01678 18.5455 6.20857C18.7565 6.40037 18.875 6.66051 18.875 6.93175V9.99993L16.625 5.90902Z" stroke="white" stroke-width="2.5" stroke-linecap="round" stroke-linejoin="round"/>
<path d="M20 9.99993V14.0908H15.5C14.9033 14.0908 14.331 13.8753 13.909 13.4917C13.4871 13.1081 13.25 12.5879 13.25 12.0454C13.25 11.5029 13.4871 10.9826 13.909 10.599C14.331 10.2154 14.9033 9.99993 15.5 9.99993H20Z" stroke="white" stroke-width="2.5" stroke-linecap="round" stroke-linejoin="round"/>
</svg>
